<svg viewBox="0 0 1000 2400" xmlns="http://www.w3.org/2000/svg">
  <g id="touchdeck-layout" data-td-layout="phone-portrait-charybdis">
    <rect id="left_bottom" data-td-slot="left_bottom" data-td-role="zone" data-td-capture="true" data-td-label="NIRI" x="0" y="1968" width="180" height="432" rx="36" />
    <rect id="bottom_edge" data-td-slot="bottom_edge" data-td-role="gesture-area" data-td-capture="true" data-td-label="TEXT" x="180" y="2184" width="760" height="216" rx="28" />
    <rect id="top_left" data-td-slot="top_left" data-td-role="zone" data-td-capture="true" data-td-label="EXIT" x="0" y="0" width="120" height="240" rx="24" />
    <rect id="center" data-td-slot="center" data-td-role="gesture-area" data-td-capture="false" data-td-label="CENTER" x="180" y="288" width="640" height="1680" rx="24" />
    <rect id="full" data-td-slot="full" data-td-role="gesture-area" data-td-capture="false" data-td-label="SCREEN" x="0" y="0" width="1000" height="2400" rx="0" />

    <rect id="key_n1" data-td-slot="key_n1" data-td-role="key" data-td-capture="true" data-td-label="1" x="25" y="1230" width="80" height="112" rx="20" />
    <rect id="key_n2" data-td-slot="key_n2" data-td-role="key" data-td-capture="true" data-td-label="2" x="122" y="1230" width="80" height="112" rx="20" />
    <rect id="key_n3" data-td-slot="key_n3" data-td-role="key" data-td-capture="true" data-td-label="3" x="219" y="1230" width="80" height="112" rx="20" />
    <rect id="key_n4" data-td-slot="key_n4" data-td-role="key" data-td-capture="true" data-td-label="4" x="316" y="1230" width="80" height="112" rx="20" />
    <rect id="key_n5" data-td-slot="key_n5" data-td-role="key" data-td-capture="true" data-td-label="5" x="413" y="1230" width="80" height="112" rx="20" />
    <rect id="key_n6" data-td-slot="key_n6" data-td-role="key" data-td-capture="true" data-td-label="6" x="510" y="1230" width="80" height="112" rx="20" />
    <rect id="key_n7" data-td-slot="key_n7" data-td-role="key" data-td-capture="true" data-td-label="7" x="607" y="1230" width="80" height="112" rx="20" />
    <rect id="key_n8" data-td-slot="key_n8" data-td-role="key" data-td-capture="true" data-td-label="8" x="704" y="1230" width="80" height="112" rx="20" />
    <rect id="key_n9" data-td-slot="key_n9" data-td-role="key" data-td-capture="true" data-td-label="9" x="801" y="1230" width="80" height="112" rx="20" />
    <rect id="key_n0" data-td-slot="key_n0" data-td-role="key" data-td-capture="true" data-td-label="0" x="898" y="1230" width="80" height="112" rx="20" />

    <rect id="key_q" data-td-slot="key_q" data-td-role="key" data-td-capture="true" data-td-label="q" x="25" y="1400" width="80" height="142" rx="22" />
    <rect id="key_w" data-td-slot="key_w" data-td-role="key" data-td-capture="true" data-td-label="w" x="122" y="1400" width="80" height="142" rx="22" />
    <rect id="key_e" data-td-slot="key_e" data-td-role="key" data-td-capture="true" data-td-label="e" x="219" y="1400" width="80" height="142" rx="22" />
    <rect id="key_r" data-td-slot="key_r" data-td-role="key" data-td-capture="true" data-td-label="r" x="316" y="1400" width="80" height="142" rx="22" />
    <rect id="key_t" data-td-slot="key_t" data-td-role="key" data-td-capture="true" data-td-label="t" x="413" y="1400" width="80" height="142" rx="22" />
    <rect id="key_y" data-td-slot="key_y" data-td-role="key" data-td-capture="true" data-td-label="y" x="510" y="1400" width="80" height="142" rx="22" />
    <rect id="key_u" data-td-slot="key_u" data-td-role="key" data-td-capture="true" data-td-label="u" x="607" y="1400" width="80" height="142" rx="22" />
    <rect id="key_i" data-td-slot="key_i" data-td-role="key" data-td-capture="true" data-td-label="i" x="704" y="1400" width="80" height="142" rx="22" />
    <rect id="key_o" data-td-slot="key_o" data-td-role="key" data-td-capture="true" data-td-label="o" x="801" y="1400" width="80" height="142" rx="22" />
    <rect id="key_p" data-td-slot="key_p" data-td-role="key" data-td-capture="true" data-td-label="p" x="898" y="1400" width="80" height="142" rx="22" />

    <rect id="key_a" data-td-slot="key_a" data-td-role="key" data-td-capture="true" data-td-label="a" x="25" y="1560" width="80" height="142" rx="22" />
    <rect id="key_s" data-td-slot="key_s" data-td-role="key" data-td-capture="true" data-td-label="s" x="122" y="1560" width="80" height="142" rx="22" />
    <rect id="key_d" data-td-slot="key_d" data-td-role="key" data-td-capture="true" data-td-label="d" x="219" y="1560" width="80" height="142" rx="22" />
    <rect id="key_f" data-td-slot="key_f" data-td-role="key" data-td-capture="true" data-td-label="f" x="316" y="1560" width="80" height="142" rx="22" />
    <rect id="key_g" data-td-slot="key_g" data-td-role="key" data-td-capture="true" data-td-label="g" x="413" y="1560" width="80" height="142" rx="22" />
    <rect id="key_h" data-td-slot="key_h" data-td-role="key" data-td-capture="true" data-td-label="h" x="510" y="1560" width="80" height="142" rx="22" />
    <rect id="key_j" data-td-slot="key_j" data-td-role="key" data-td-capture="true" data-td-label="j" x="607" y="1560" width="80" height="142" rx="22" />
    <rect id="key_k" data-td-slot="key_k" data-td-role="key" data-td-capture="true" data-td-label="k" x="704" y="1560" width="80" height="142" rx="22" />
    <rect id="key_l" data-td-slot="key_l" data-td-role="key" data-td-capture="true" data-td-label="l" x="801" y="1560" width="80" height="142" rx="22" />
    <rect id="key_semi" data-td-slot="key_semi" data-td-role="key" data-td-capture="true" data-td-label=";" x="898" y="1560" width="80" height="142" rx="22" />

    <rect id="key_z" data-td-slot="key_z" data-td-role="key" data-td-capture="true" data-td-label="z" x="25" y="1720" width="80" height="142" rx="22" />
    <rect id="key_x" data-td-slot="key_x" data-td-role="key" data-td-capture="true" data-td-label="x" x="122" y="1720" width="80" height="142" rx="22" />
    <rect id="key_c" data-td-slot="key_c" data-td-role="key" data-td-capture="true" data-td-label="c" x="219" y="1720" width="80" height="142" rx="22" />
    <rect id="key_v" data-td-slot="key_v" data-td-role="key" data-td-capture="true" data-td-label="v" x="316" y="1720" width="80" height="142" rx="22" />
    <rect id="key_b" data-td-slot="key_b" data-td-role="key" data-td-capture="true" data-td-label="b" x="413" y="1720" width="80" height="142" rx="22" />
    <rect id="key_n" data-td-slot="key_n" data-td-role="key" data-td-capture="true" data-td-label="n" x="510" y="1720" width="80" height="142" rx="22" />
    <rect id="key_m" data-td-slot="key_m" data-td-role="key" data-td-capture="true" data-td-label="m" x="607" y="1720" width="80" height="142" rx="22" />
    <rect id="key_comma" data-td-slot="key_comma" data-td-role="key" data-td-capture="true" data-td-label="," x="704" y="1720" width="80" height="142" rx="22" />
    <rect id="key_dot" data-td-slot="key_dot" data-td-role="key" data-td-capture="true" data-td-label="." x="801" y="1720" width="80" height="142" rx="22" />
    <rect id="key_fslh" data-td-slot="key_fslh" data-td-role="key" data-td-capture="true" data-td-label="/" x="898" y="1720" width="80" height="142" rx="22" />

    <rect id="thumb_ctrl" data-td-slot="thumb_ctrl" data-td-role="key" data-td-capture="true" data-td-label="CTL" x="200" y="1940" width="120" height="150" rx="34" />
    <rect id="thumb_shift" data-td-slot="thumb_shift" data-td-role="key" data-td-capture="true" data-td-label="SFT" x="335" y="1940" width="120" height="150" rx="34" />
    <rect id="thumb_super" data-td-slot="thumb_super" data-td-role="key" data-td-capture="true" data-td-label="SUP" x="470" y="1940" width="120" height="150" rx="34" />
    <rect id="thumb_ret" data-td-slot="thumb_ret" data-td-role="key" data-td-capture="true" data-td-label="RET" x="605" y="1940" width="150" height="150" rx="36" />
    <rect id="thumb_spc" data-td-slot="thumb_spc" data-td-role="key" data-td-capture="true" data-td-label="SPC" x="770" y="1940" width="190" height="150" rx="38" />
  </g>
</svg>
